# xmcd
#
# Track frame offsets:
#	150
#	14171
#	29059
#	46371
#	60010
#	75416
#	89412
#	104230
#	116813
#	135170
#	158518
#	179535
#	186979
#	209959
#	224533
#
# Disc length: 3259 seconds
#
# Revision: 1
# Processed by: cddbd v1.5.1PL0 Copyright (c) Steve Scherf et al.
# Submitted via: EasyCDDAExtractor 8.0.2.1
#
DISCID=dd0cb90f
DTITLE=Alice Cooper - The Docks Toronto 22-08-05 Disc 2
DYEAR=2005
DGENRE=Hard Rock
TTITLE0=Go To Hell
TTITLE1=Black Widow
TTITLE2=Drum Solo
TTITLE3=Gimme
TTITLE4=Feed My Frankenstein
TTITLE5=Welcome To My Nightmare
TTITLE6=Steven Intro
TTITLE7=Only Women Bleed - Steven Outro
TTITLE8=Ballad Of Dwight Fry
TTITLE9=Desperado - I Love The Dead
TTITLE10=Schools Out
TTITLE11=Encore Cheers
TTITLE12=Poison
TTITLE13=I Wish I Was Born In Beverly Hills
TTITLE14=Under My Wheels
EXTD=
EXTT0=
EXTT1=
EXTT2=
EXTT3=
EXTT4=
EXTT5=
EXTT6=
EXTT7=
EXTT8=
EXTT9=
EXTT10=
EXTT11=
EXTT12=
EXTT13=
EXTT14=
PLAYORDER=
